<svg width="384" height="249" viewBox="0 0 384 249" fill="none" xmlns="http://www.w3.org/2000/svg">
<path fill-rule="evenodd" clip-rule="evenodd" d="M192 0C140.8 0 108.8 27.6667 96 83C115.2 55.3333 137.6 44.9583 163.2 51.875C177.806 55.8175 188.245 67.2761 199.801 79.949C218.624 100.599 240.412 124.5 288 124.5C339.2 124.5 371.2 96.8333 384 41.5C364.8 69.1667 342.4 79.5417 316.8 72.625C302.194 68.6825 291.755 57.2239 280.199 44.551C261.376 23.9009 239.588 0 192 0ZM96 124.5C44.8 124.5 12.8 152.167 0 207.5C19.2 179.833 41.6 169.458 67.2 176.375C81.8062 180.325 92.2453 191.776 103.801 204.449C122.624 225.099 144.412 249 192 249C243.2 249 275.2 221.333 288 166C268.8 193.667 246.4 204.042 220.8 197.125C206.194 193.182 195.755 181.724 184.199 169.051C165.376 148.401 143.588 124.5 96 124.5Z" fill="#38BDF8"/>
</svg>
